<svg xmlns="http://www.w3.org/2000/svg" width="180.585" height="51.823" viewBox="0 0 180.585 51.823">
  <g id="aivalable-on-the-app-store-2" transform="translate(0)">
    <path id="Path_1988" data-name="Path 1988" d="M191.266,57.308a5.2,5.2,0,0,1-5.2,5.195H15.888a5.2,5.2,0,0,1-5.207-5.195V15.882a5.208,5.208,0,0,1,5.207-5.2H186.065a5.2,5.2,0,0,1,5.2,5.2V57.308Z" transform="translate(-10.681 -10.68)" fill="#fff"/>
    <path id="Path_1990" data-name="Path 1990" d="M191.266,57.308a5.2,5.2,0,0,1-5.2,5.195H15.888a5.2,5.2,0,0,1-5.207-5.195V15.882a5.208,5.208,0,0,1,5.207-5.2H186.065a5.2,5.2,0,0,1,5.2,5.2V57.308Z" transform="translate(-10.681 -10.68)"/>
    <path id="Path_1991" data-name="Path 1991" d="M180.4,95.65a8.992,8.992,0,0,1,4.283-7.545,9.21,9.21,0,0,0-7.254-3.922c-3.051-.321-6.011,1.826-7.566,1.826-1.585,0-3.979-1.795-6.559-1.742a9.658,9.658,0,0,0-8.129,4.958c-3.515,6.086-.894,15.029,2.474,19.948,1.685,2.411,3.653,5.1,6.23,5,2.521-.1,3.462-1.606,6.5-1.606,3.014,0,3.9,1.606,6.526,1.545,2.706-.042,4.409-2.42,6.035-4.851a19.891,19.891,0,0,0,2.76-5.62A8.7,8.7,0,0,1,180.4,95.65Zm-4.964-14.7a8.852,8.852,0,0,0,2.026-6.343,9.017,9.017,0,0,0-5.83,3.016,8.424,8.424,0,0,0-2.079,6.109A7.447,7.447,0,0,0,175.433,80.947Z" transform="translate(-141.408 -68.48)" fill="#fff"/>
    <g id="Group_5195" data-name="Group 5195" transform="translate(56.342 23.206)">
      <path id="Path_1993" data-name="Path 1993" d="M524.4,234.307h-3.08l-1.687-5.3h-5.865l-1.607,5.3h-3l5.812-18.05h3.589Zm-5.276-7.526-1.526-4.713q-.242-.722-.91-3.4h-.054q-.269,1.151-.857,3.4l-1.5,4.713Zm20.193.859a7.37,7.37,0,0,1-1.8,5.248A5.289,5.289,0,0,1,533.5,234.6a4.016,4.016,0,0,1-3.716-1.846v6.829h-2.892V225.57q0-2.086-.107-4.278h2.543l.161,2.063h.054a5.144,5.144,0,0,1,8.234-.511A7.2,7.2,0,0,1,539.315,227.639Zm-2.946.106a5.367,5.367,0,0,0-.857-3.134,2.963,2.963,0,0,0-2.517-1.284,3.007,3.007,0,0,0-1.941.709,3.289,3.289,0,0,0-1.138,1.862,3.779,3.779,0,0,0-.134.88v2.171a3.482,3.482,0,0,0,.871,2.4,2.891,2.891,0,0,0,2.262.978,2.963,2.963,0,0,0,2.543-1.259A5.54,5.54,0,0,0,536.369,227.745Zm17.916-.106a7.371,7.371,0,0,1-1.8,5.248,5.292,5.292,0,0,1-4.013,1.714,4.016,4.016,0,0,1-3.716-1.846v6.829H541.86V225.57q0-2.086-.107-4.278H544.3l.161,2.063h.054a5.146,5.146,0,0,1,8.236-.511A7.2,7.2,0,0,1,554.285,227.639Zm-2.947.106a5.365,5.365,0,0,0-.859-3.134,2.958,2.958,0,0,0-2.515-1.284,3.019,3.019,0,0,0-1.944.709,3.288,3.288,0,0,0-1.137,1.862,3.863,3.863,0,0,0-.136.88v2.171a3.494,3.494,0,0,0,.87,2.4,2.9,2.9,0,0,0,2.265.978,2.96,2.96,0,0,0,2.543-1.259A5.539,5.539,0,0,0,551.338,227.745Zm19.684,1.5a4.822,4.822,0,0,1-1.6,3.75,7.112,7.112,0,0,1-4.917,1.58,8.582,8.582,0,0,1-4.674-1.124l.669-2.41a8.045,8.045,0,0,0,4.177,1.126,3.941,3.941,0,0,0,2.543-.736,2.406,2.406,0,0,0,.913-1.967,2.521,2.521,0,0,0-.751-1.849,6.967,6.967,0,0,0-2.49-1.392q-4.741-1.768-4.742-5.17a4.565,4.565,0,0,1,1.674-3.642,6.618,6.618,0,0,1,4.432-1.42,8.759,8.759,0,0,1,4.1.857l-.726,2.357a7.165,7.165,0,0,0-3.468-.83,3.527,3.527,0,0,0-2.392.75,2.146,2.146,0,0,0-.726,1.636,2.211,2.211,0,0,0,.831,1.767,9.368,9.368,0,0,0,2.623,1.392,8.893,8.893,0,0,1,3.427,2.195,4.573,4.573,0,0,1,1.1,3.13Zm9.586-5.782h-3.187v6.319q0,2.411,1.687,2.409a5.087,5.087,0,0,0,1.285-.134l.08,2.2a6.548,6.548,0,0,1-2.249.32,3.465,3.465,0,0,1-2.679-1.046,5.127,5.127,0,0,1-.964-3.509v-6.561h-1.9v-2.17h1.9V218.9l2.84-.857v3.24h3.188v2.176Zm14.352,4.23a7.14,7.14,0,0,1-1.714,4.928,6.111,6.111,0,0,1-4.766,1.982,5.825,5.825,0,0,1-4.567-1.9,6.923,6.923,0,0,1-1.7-4.793,7.082,7.082,0,0,1,1.754-4.953,6.079,6.079,0,0,1,4.728-1.929,5.947,5.947,0,0,1,4.6,1.9A6.832,6.832,0,0,1,594.96,227.692Zm-3,.066a5.827,5.827,0,0,0-.774-3.071,2.862,2.862,0,0,0-2.6-1.55,2.9,2.9,0,0,0-2.652,1.55,5.924,5.924,0,0,0-.776,3.125,5.811,5.811,0,0,0,.776,3.072,2.966,2.966,0,0,0,5.226-.026A5.85,5.85,0,0,0,591.963,227.759Zm12.4-3.924a5.024,5.024,0,0,0-.911-.08,2.729,2.729,0,0,0-2.357,1.153,4.342,4.342,0,0,0-.722,2.57v6.829h-2.892v-8.916q0-2.248-.084-4.1h2.519l.106,2.49h.08a4.466,4.466,0,0,1,1.446-2.063,3.5,3.5,0,0,1,2.09-.7,4.634,4.634,0,0,1,.723.053Zm12.934,3.349a6.771,6.771,0,0,1-.106,1.312h-8.675a3.775,3.775,0,0,0,1.259,2.949,4.3,4.3,0,0,0,2.837.909,9.594,9.594,0,0,0,3.51-.614l.453,2.006a10.852,10.852,0,0,1-4.363.8,6.326,6.326,0,0,1-4.755-1.78,6.579,6.579,0,0,1-1.726-4.78,7.456,7.456,0,0,1,1.608-4.9A5.542,5.542,0,0,1,611.889,221a4.85,4.85,0,0,1,4.26,2.088A7.026,7.026,0,0,1,617.3,227.184Zm-2.758-.75a3.916,3.916,0,0,0-.562-2.223,2.525,2.525,0,0,0-2.3-1.207,2.741,2.741,0,0,0-2.3,1.179,4.318,4.318,0,0,0-.856,2.249Z" transform="translate(-509.16 -215.99)" fill="#fff"/>
    </g>
    <g id="Group_5196" data-name="Group 5196" transform="translate(57.419 7.681)">
      <path id="Path_1994" data-name="Path 1994" d="M526.179,87.968h-1.515l-.829-2.606h-2.882l-.791,2.606h-1.474l2.857-8.872h1.763Zm-2.593-3.7-.75-2.317c-.079-.237-.224-.789-.448-1.671h-.027c-.092.381-.224.935-.422,1.671l-.737,2.317Zm9.736-2.7-2.422,6.4h-1.382l-2.344-6.4H528.7l1.093,3.383c.184.566.342,1.105.46,1.618h.039c.106-.46.263-1,.46-1.618l1.08-3.383Zm5.157,6.4-.106-.737h-.04a2.181,2.181,0,0,1-1.869.882A1.862,1.862,0,0,1,534.5,86.23c0-1.579,1.368-2.4,3.738-2.4v-.118c0-.842-.448-1.264-1.329-1.264a2.986,2.986,0,0,0-1.671.475l-.289-.935a4.1,4.1,0,0,1,2.2-.553c1.671,0,2.515.882,2.515,2.646v2.356a9.49,9.49,0,0,0,.092,1.527Zm-.2-3.186c-1.58,0-2.369.382-2.369,1.29a.906.906,0,0,0,.974,1,1.36,1.36,0,0,0,1.4-1.3Zm4.551-4.264a.85.85,0,1,1,.9-.856A.835.835,0,0,1,542.831,80.517Zm.738,7.45h-1.421v-6.4h1.421Zm3.947,0h-1.422V78.636h1.422Zm6.041,0-.106-.737h-.039a2.181,2.181,0,0,1-1.869.882,1.862,1.862,0,0,1-1.961-1.883c0-1.579,1.368-2.4,3.738-2.4v-.118c0-.842-.448-1.264-1.329-1.264a2.986,2.986,0,0,0-1.671.475l-.29-.936a4.1,4.1,0,0,1,2.2-.553c1.671,0,2.515.882,2.515,2.646V86.44a9.831,9.831,0,0,0,.091,1.527h-1.276Zm-.2-3.186c-1.58,0-2.37.382-2.37,1.29a.906.906,0,0,0,.974,1,1.36,1.36,0,0,0,1.4-1.3Zm7.143,3.331a2.171,2.171,0,0,1-2.012-1.133h-.029l-.081.987h-1.211c.039-.513.053-1.093.053-1.724V78.636h1.423v3.871h.027a2.194,2.194,0,0,1,2.04-1.066c1.541,0,2.62,1.317,2.62,3.238,0,1.986-1.2,3.434-2.831,3.434Zm-.289-5.556a1.635,1.635,0,0,0-1.567,1.7v1.119a1.567,1.567,0,0,0,1.542,1.606c1.065,0,1.7-.868,1.7-2.25C561.885,83.44,561.225,82.557,560.212,82.557Zm6.642,5.41h-1.42V78.636h1.42Zm7.738-2.856h-4.267a1.836,1.836,0,0,0,2.014,1.895,4.8,4.8,0,0,0,1.724-.3l.221.987a5.333,5.333,0,0,1-2.144.395,2.97,2.97,0,0,1-3.186-3.224c0-1.961,1.213-3.436,3.026-3.436,1.632,0,2.66,1.211,2.66,3.041A2.685,2.685,0,0,1,574.592,85.111Zm-1.3-1.013c0-.987-.5-1.685-1.409-1.685a1.688,1.688,0,0,0-1.554,1.685Zm9.92,4.015a3.044,3.044,0,0,1-3.08-3.29,3.116,3.116,0,0,1,3.187-3.383,3.021,3.021,0,0,1,3.08,3.278A3.135,3.135,0,0,1,583.208,88.113Zm.054-5.634c-1.027,0-1.684.96-1.684,2.3,0,1.317.671,2.277,1.671,2.277s1.669-1.027,1.669-2.3C584.92,83.452,584.262,82.479,583.262,82.479Zm10.774,5.489h-1.42V84.295c0-1.131-.434-1.7-1.29-1.7a1.477,1.477,0,0,0-1.423,1.567v3.8h-1.42V83.4c0-.566-.015-1.172-.053-1.83h1.25l.066.987h.039a2.3,2.3,0,0,1,2.026-1.119c1.341,0,2.223,1.027,2.223,2.7v3.832Zm9.3-5.33h-1.564v3.106q0,1.186.827,1.185a2.812,2.812,0,0,0,.632-.066l.039,1.08a3.166,3.166,0,0,1-1.1.159c-1.12,0-1.789-.618-1.789-2.238V82.637h-.933V81.571h.933V80.4l1.394-.422V81.57h1.564Zm7.528,5.33h-1.423V84.322c0-1.145-.434-1.724-1.29-1.724a1.392,1.392,0,0,0-1.42,1.514v3.856h-1.423V78.636h1.423v3.842h.027a2.153,2.153,0,0,1,1.922-1.04c1.355,0,2.184,1.053,2.184,2.725Zm7.263-2.856h-4.266a1.834,1.834,0,0,0,2.013,1.895,4.794,4.794,0,0,0,1.724-.3l.222.987a5.339,5.339,0,0,1-2.146.395,2.97,2.97,0,0,1-3.186-3.224c0-1.961,1.213-3.436,3.026-3.436,1.632,0,2.66,1.211,2.66,3.041A2.761,2.761,0,0,1,618.128,85.111Zm-1.3-1.013c0-.987-.5-1.685-1.408-1.685a1.686,1.686,0,0,0-1.554,1.685Z" transform="translate(-518.688 -78.636)" fill="#fff"/>
    </g>
  </g>
</svg>
