<svg xmlns="http://www.w3.org/2000/svg" xmlns:xlink="http://www.w3.org/1999/xlink" width="31" height="26" viewBox="0 0 31 26"><defs><style>.a{fill:#fff;stroke:#707070;}.b{clip-path:url(#a);}.c{fill:none;stroke:#37393e;stroke-linecap:round;stroke-linejoin:round;stroke-width:2px;}</style><clipPath id="a"><rect class="a" width="31" height="26" transform="translate(302 623)"/></clipPath></defs><g class="b" transform="translate(-302 -623)"><path class="c" d="M25.683,19.891v3.4a2.264,2.264,0,0,1-2.468,2.264,22.4,22.4,0,0,1-9.77-3.476,22.076,22.076,0,0,1-6.793-6.793A22.4,22.4,0,0,1,3.177,5.468,2.264,2.264,0,0,1,5.43,3h3.4A2.264,2.264,0,0,1,11.09,4.947a14.536,14.536,0,0,0,.792,3.181,2.264,2.264,0,0,1-.509,2.389L9.936,11.955a18.114,18.114,0,0,0,6.793,6.793l1.438-1.438a2.264,2.264,0,0,1,2.389-.509,14.536,14.536,0,0,0,3.181.792,2.264,2.264,0,0,1,1.947,2.3Z" transform="translate(303.332 621.5)"/></g></svg>