<svg xmlns="http://www.w3.org/2000/svg" width="28.201" height="19.778" viewBox="0 0 28.201 19.778"><defs><style>.a{fill:#fff;}.b{fill:#f0953d;}.c{fill:#3d8a41;}.d{fill:#2a2874;}</style></defs><g transform="translate(0 0)"><rect class="a" width="28.201" height="7.522" transform="translate(0 6.128)"/><path class="b" d="M2,0H26.2a2,2,0,0,1,2,2V6.595a0,0,0,0,1,0,0H0a0,0,0,0,1,0,0V2A2,2,0,0,1,2,0Z"/><path class="c" d="M0,0H28.2a0,0,0,0,1,0,0V4.595a2,2,0,0,1-2,2H2a2,2,0,0,1-2-2V0A0,0,0,0,1,0,0Z" transform="translate(0 13.183)"/><path class="d" d="M614.577,611.61a2.966,2.966,0,1,0,2.966,2.966,2.97,2.97,0,0,0-2.966-2.966m0,.291-.073,1.49.08.848.079-.848-.073-1.49c.079,0,.152.007.225.013v.013a.126.126,0,0,0,.126.126.121.121,0,0,0,.119-.106c.073.013.146.026.219.046l-.457,1.417-.146.841.3-.8.311-1.457a2.009,2.009,0,0,1,.212.066.1.1,0,0,0-.007.046.12.12,0,0,0,.126.119.126.126,0,0,0,.113-.073c.066.033.132.066.2.106l-.808,1.251-.358.775.5-.7.682-1.331c.066.039.126.079.185.119a.138.138,0,0,0-.026.073.126.126,0,0,0,.126.126.141.141,0,0,0,.1-.046,1.771,1.771,0,0,1,.166.152l-1.106,1-.543.655.656-.543,1-1.106a1.814,1.814,0,0,1,.152.166.122.122,0,0,0,.08.218.1.1,0,0,0,.073-.026,1.839,1.839,0,0,1,.119.192l-1.357.675-.7.5.775-.358,1.252-.814a2.112,2.112,0,0,1,.106.212.116.116,0,0,0-.073.113.126.126,0,0,0,.126.126.1.1,0,0,0,.047-.007,1.888,1.888,0,0,1,.066.205l-1.457.311-.8.3.841-.146,1.417-.457c.02.073.033.146.046.219a.121.121,0,0,0-.106.119.126.126,0,0,0,.126.126h.013c.007.073.013.146.013.225l-1.49-.073-.854.08.848.079,1.49-.073c0,.073-.007.152-.013.225h-.013a.126.126,0,0,0-.126.126.122.122,0,0,0,.106.119c-.013.073-.027.146-.047.218l-.5-.166-.914-.3-.841-.146h0l.8.3,1.457.311a1.994,1.994,0,0,1-.066.212c-.007,0-.013-.007-.02-.007h-.026a.126.126,0,0,0-.126.126.1.1,0,0,0,.007.046h0a.116.116,0,0,0,.033.046h0l.007.007h0l.007.007h0l.007.007c-.033.066-.066.132-.106.2l-1.251-.808h0l-.775-.358h0l.4.285.291.205h0l1.324.675a1.946,1.946,0,0,1-.126.192.134.134,0,0,0-.073-.02.126.126,0,0,0-.126.126.116.116,0,0,0,.046.093c-.046.06-.1.113-.146.166l-1-1.106-.656-.543.543.655,1.106,1c-.053.053-.106.1-.159.146a.106.106,0,0,0-.08-.027.126.126,0,0,0-.126.126.154.154,0,0,0,.013.053c-.066.046-.133.086-.2.126l-.682-1.324-.5-.7h0l.358.775.808,1.251a1.373,1.373,0,0,1-.2.1.125.125,0,0,0-.238.053.112.112,0,0,0,.007.047c-.073.026-.146.046-.219.066l-.311-1.457-.3-.8h0l.146.841.457,1.417c-.073.02-.146.033-.219.046a.121.121,0,0,0-.119-.106.126.126,0,0,0-.126.126v.013c-.073.007-.146.013-.225.013l.079-1.49-.079-.848-.08.848.08,1.49c-.08,0-.152-.007-.232-.013v-.013a.126.126,0,0,0-.126-.126.121.121,0,0,0-.119.106,1.989,1.989,0,0,1-.212-.046l.457-1.417.146-.841-.3.8-.311,1.457a1.98,1.98,0,0,1-.212-.066.1.1,0,0,0,.007-.047.124.124,0,0,0-.119-.126.126.126,0,0,0-.113.073c-.066-.033-.132-.066-.2-.106l.808-1.251.357-.775-.5.7-.636,1.311c-.066-.04-.126-.08-.192-.119a.14.14,0,0,0,.026-.073.126.126,0,0,0-.126-.126.116.116,0,0,0-.093.046c-.06-.046-.113-.1-.166-.146l1.106-1,.543-.656h0l-.656.543-1,1.106a1.819,1.819,0,0,1-.152-.165.126.126,0,0,0,.046-.093.125.125,0,0,0-.119-.126.1.1,0,0,0-.073.026,1.834,1.834,0,0,1-.119-.192l1.331-.682.7-.5-.775.358-1.251.814a1.319,1.319,0,0,1-.1-.192.122.122,0,0,0,.079-.113.126.126,0,0,0-.126-.126.123.123,0,0,0-.053.013c-.026-.073-.046-.146-.066-.219l1.457-.311.8-.3-.841.146-1.417.457c-.02-.073-.033-.146-.046-.219a.121.121,0,0,0,.106-.119.126.126,0,0,0-.126-.126h-.013c-.007-.073-.007-.146-.013-.225l1.49.073.848-.079-.848-.079-1.49.079c0-.073.007-.152.013-.225h.02a.126.126,0,0,0,.126-.126.123.123,0,0,0-.113-.126c.013-.073.026-.146.046-.219l1.417.457.841.146-.8-.3-1.457-.311a1.991,1.991,0,0,1,.066-.212.1.1,0,0,0,.046.007.125.125,0,0,0,.126-.119.126.126,0,0,0-.073-.112c.033-.066.066-.132.106-.2l1.252.808.775.358-.7-.5-1.338-.675c.039-.066.079-.126.119-.192a.139.139,0,0,0,.073.026.125.125,0,0,0,.126-.119.141.141,0,0,0-.046-.1,1.794,1.794,0,0,1,.152-.166l1,1.106.655.543-.543-.656-1.106-1a1.782,1.782,0,0,1,.166-.152.126.126,0,0,0,.093.046.119.119,0,0,0,.119-.119.133.133,0,0,0-.02-.073c.06-.04.126-.086.185-.119l.682,1.331.5.7-.358-.775-.808-1.251a1.1,1.1,0,0,1,.2-.1.122.122,0,0,0,.113.079.125.125,0,0,0,.126-.119.158.158,0,0,0-.013-.053c.073-.026.146-.046.219-.066l.311,1.457.3.8-.146-.841L613.895,612c.073-.02.146-.033.219-.046a.121.121,0,0,0,.119.106.126.126,0,0,0,.126-.126v-.013a.767.767,0,0,1,.218-.02" transform="translate(-600.476 -604.691)"/><path class="a" d="M722.387,721.943a.444.444,0,1,1-.444.444.444.444,0,0,1,.444-.444" transform="translate(-708.287 -712.501)"/><path class="d" d="M726.631,726.287a.344.344,0,1,1-.344.344.35.35,0,0,1,.344-.344" transform="translate(-712.531 -716.746)"/></g></svg>