<svg xmlns="http://www.w3.org/2000/svg" xmlns:xlink="http://www.w3.org/1999/xlink" width="174.178" height="51.608" viewBox="0 0 174.178 51.608">
  <defs>
    <linearGradient id="linear-gradient" x1="0.908" y1="1.032" x2="-0.383" y2="0.36" gradientUnits="objectBoundingBox">
      <stop offset="0" stop-color="#00a0ff"/>
      <stop offset="0.007" stop-color="#00a1ff"/>
      <stop offset="0.26" stop-color="#00beff"/>
      <stop offset="0.512" stop-color="#00d2ff"/>
      <stop offset="0.76" stop-color="#00dfff"/>
      <stop offset="1" stop-color="#00e3ff"/>
    </linearGradient>
    <linearGradient id="linear-gradient-2" x1="1.077" y1="0.729" x2="-1.307" y2="0.729" gradientUnits="objectBoundingBox">
      <stop offset="0" stop-color="#ffe000"/>
      <stop offset="0.409" stop-color="#ffbd00"/>
      <stop offset="0.775" stop-color="orange"/>
      <stop offset="1" stop-color="#ff9c00"/>
    </linearGradient>
    <linearGradient id="linear-gradient-3" x1="0.864" y1="-0.023" x2="-0.499" y2="-1.789" gradientUnits="objectBoundingBox">
      <stop offset="0" stop-color="#ff3a44"/>
      <stop offset="1" stop-color="#c31162"/>
    </linearGradient>
    <linearGradient id="linear-gradient-4" x1="-0.186" y1="2.701" x2="0.423" y2="1.909" gradientUnits="objectBoundingBox">
      <stop offset="0" stop-color="#32a071"/>
      <stop offset="0.069" stop-color="#2da771"/>
      <stop offset="0.476" stop-color="#15cf74"/>
      <stop offset="0.801" stop-color="#06e775"/>
      <stop offset="1" stop-color="#00f076"/>
    </linearGradient>
  </defs>
  <g id="google-play-badge-1" transform="translate(0 0)">
    <path id="Path_1977" data-name="Path 1977" d="M167.727,51.608H6.451A6.388,6.388,0,0,1,0,45.157V6.451A6.388,6.388,0,0,1,6.451,0H167.727a6.388,6.388,0,0,1,6.451,6.451V45.157A6.388,6.388,0,0,1,167.727,51.608Z" transform="translate(0 0)"/>
    <path id="Path_1979" data-name="Path 1979" d="M75.936,23.164a5.428,5.428,0,0,0-5.548,5.548,5.507,5.507,0,0,0,5.548,5.548,5.428,5.428,0,0,0,5.548-5.548A5.353,5.353,0,0,0,75.936,23.164Zm0,8.773a3.2,3.2,0,0,1-3.1-3.355,3.2,3.2,0,0,1,3.1-3.355,3.125,3.125,0,0,1,3.1,3.355A3.2,3.2,0,0,1,75.936,31.937Zm-12-8.773a5.428,5.428,0,0,0-5.548,5.548,5.507,5.507,0,0,0,5.548,5.548,5.428,5.428,0,0,0,5.548-5.548A5.353,5.353,0,0,0,63.937,23.164Zm0,8.773a3.2,3.2,0,0,1-3.1-3.355,3.2,3.2,0,0,1,3.1-3.355,3.125,3.125,0,0,1,3.1,3.355A3.2,3.2,0,0,1,63.937,31.937Zm-14.321-7.1v2.322h5.548a4.879,4.879,0,0,1-1.29,2.967,5.711,5.711,0,0,1-4.258,1.677,6.007,6.007,0,0,1-6.064-6.193,6.086,6.086,0,0,1,6.064-6.193A6.4,6.4,0,0,1,53.873,21.1l1.677-1.677A8.268,8.268,0,0,0,49.744,17.1,8.7,8.7,0,0,0,41.1,25.615a8.7,8.7,0,0,0,8.644,8.515,7.425,7.425,0,0,0,5.935-2.451,7.767,7.767,0,0,0,2.064-5.419,4.838,4.838,0,0,0-.129-1.419h-8Zm58.575,1.806a5.013,5.013,0,0,0-4.645-3.484,5.2,5.2,0,0,0-5.161,5.548A5.4,5.4,0,0,0,103.8,34.26a5.293,5.293,0,0,0,4.516-2.451l-1.806-1.29a3.145,3.145,0,0,1-2.709,1.548,2.8,2.8,0,0,1-2.709-1.677l7.354-3.1-.258-.645Zm-7.483,1.806a3.134,3.134,0,0,1,2.838-3.226,2.282,2.282,0,0,1,2.064,1.161Zm-6.064,5.29h2.451V17.616H94.644Zm-3.871-9.419a4.248,4.248,0,0,0-2.967-1.29,5.544,5.544,0,0,0-5.29,5.548A5.342,5.342,0,0,0,87.805,34a3.7,3.7,0,0,0,2.838-1.29h.129v.774c0,2.064-1.161,3.226-2.967,3.226A2.866,2.866,0,0,1,85.1,34.776l-2.064.9a5.323,5.323,0,0,0,4.9,3.226c2.838,0,5.161-1.677,5.161-5.677V23.422H90.773Zm-2.838,7.612a3.2,3.2,0,0,1-3.1-3.355,3.2,3.2,0,0,1,3.1-3.355A3.1,3.1,0,0,1,90.9,28.583,3.1,3.1,0,0,1,87.935,31.937Zm31.481-14.321H113.61V33.744h2.451V27.68h3.355a5.038,5.038,0,1,0,0-10.064Zm.129,7.741h-3.484V19.809h3.484a2.834,2.834,0,0,1,2.838,2.709,2.953,2.953,0,0,1-2.838,2.838Zm14.837-2.322a4.337,4.337,0,0,0-4.258,2.451l2.193.9a2.279,2.279,0,0,1,2.193-1.161,2.425,2.425,0,0,1,2.58,2.064v.129a5.118,5.118,0,0,0-2.451-.645c-2.322,0-4.645,1.29-4.645,3.613a3.78,3.78,0,0,0,4,3.613,3.631,3.631,0,0,0,3.1-1.548h.129v1.29h2.322V27.551A4.883,4.883,0,0,0,134.382,23.035Zm-.258,8.9c-.774,0-1.935-.387-1.935-1.419,0-1.29,1.419-1.677,2.58-1.677a4.99,4.99,0,0,1,2.193.516A3,3,0,0,1,134.124,31.937Zm13.547-8.515-2.709,6.967h-.129l-2.838-6.967h-2.58l4.258,9.806-2.451,5.419h2.451l6.58-15.224ZM126,33.744h2.451V17.616H126Z" transform="translate(11.927 4.962)" fill="#fff"/>
    <path id="Path_1980" data-name="Path 1980" d="M10.589,7.5A2.88,2.88,0,0,0,10,9.562V42.114a2.914,2.914,0,0,0,.736,2.062l.147.147L29.148,26.059v-.295Z" transform="translate(0.765 -1.029)" fill="url(#linear-gradient)"/>
    <path id="Path_1981" data-name="Path 1981" d="M28.939,28.32,22.9,22.281v-.442L28.939,15.8l.147.147L36.3,20.072c2.062,1.178,2.062,3.093,0,4.272Z" transform="translate(6.865 2.896)" fill="url(#linear-gradient-2)"/>
    <path id="Path_1982" data-name="Path 1982" d="M35,26.186,28.811,20,10.4,38.412c.736.736,1.767.736,3.093.147L35,26.186" transform="translate(0.953 4.883)" fill="url(#linear-gradient-3)"/>
    <path id="Path_1983" data-name="Path 1983" d="M35,19.881,13.493,7.655c-1.326-.736-2.357-.589-3.093.147L28.811,26.067,35,19.881Z" transform="translate(0.953 -1.184)" fill="url(#linear-gradient-4)"/>
    <path id="Path_1984" data-name="Path 1984" d="M31.817,24.1,13.109,34.68a2.11,2.11,0,0,1-2.58,0l-.129.129.129.129a2.11,2.11,0,0,0,2.58,0Z" transform="translate(3.018 6.994)" opacity="0.2"/>
    <path id="Path_1985" data-name="Path 1985" d="M10.516,35.87A2.522,2.522,0,0,1,10,34.063v.129A2.552,2.552,0,0,0,10.645,36V35.87h-.129ZM38.385,21.677,31.934,25.29l.129.129,6.322-3.613A2.145,2.145,0,0,0,39.675,20C39.675,20.645,39.159,21.161,38.385,21.677Z" transform="translate(2.902 5.804)" opacity="0.12"/>
    <path id="Path_1986" data-name="Path 1986" d="M13.226,7.731,38.385,22.053c.774.516,1.29,1.032,1.29,1.677a2.145,2.145,0,0,0-1.29-1.806L13.226,7.6C11.419,6.57,10,7.344,10,9.409v.129C10,7.6,11.419,6.7,13.226,7.731Z" transform="translate(2.902 2.074)" fill="#fff" opacity="0.25"/>
    <g id="Group_5194" data-name="Group 5194" transform="translate(52.769 8.902)">
      <path id="Path_1987" data-name="Path 1987" d="M47.738,13.738A4,4,0,0,1,40.9,10.9a4,4,0,1,1,8,0A3.794,3.794,0,0,1,47.738,13.738Zm-4.9-.645A3.045,3.045,0,0,0,44.9,14a2.567,2.567,0,0,0,2.064-.9,3.113,3.113,0,0,0,.9-2.193,2.658,2.658,0,0,0-.9-2.193A3.045,3.045,0,0,0,44.9,7.8a2.567,2.567,0,0,0-2.064.9,3.113,3.113,0,0,0-.9,2.193A2.658,2.658,0,0,0,42.835,13.093Zm7.483,1.677V7.029H51.48l3.742,6.064V7.029h1.032V14.77H55.221L51.351,8.448V14.77Zm10.322,0H59.608V7.932H57.415v-.9H62.7v.9H60.511V14.77Zm3.484,0V7.029h2.322a4.016,4.016,0,0,1,2.838,1.032A3.7,3.7,0,0,1,70.317,10.9a4.251,4.251,0,0,1-1.032,2.838,3.7,3.7,0,0,1-2.838,1.032Zm.9-.9h1.419a2.724,2.724,0,0,0,2.064-.774,3.035,3.035,0,0,0,.774-2.193,3.035,3.035,0,0,0-.774-2.193,2.93,2.93,0,0,0-2.064-.774H65.027ZM76.252,7.932H72.768v2.451h3.226v.9H72.768v2.451h3.484V14.77H71.736V7.029h4.516Zm7.354-.9-2.838,3.355,3.1,4.387H82.7l-2.58-3.613-1.161,1.419V14.77H77.929V7.029h1.032v4l3.355-4Zm3.742,7.741V7.029H88.38v3.355H92.25V7.029h1.032V14.77H92.25V11.287H88.38V14.77ZM99.6,7.932H96.121v2.451h3.226v.9H96.121v2.451H99.6V14.77H95.089V7.029H99.6Zm4.129,6.838H102.7V7.932h-2.193v-.9h5.29v.9H103.6V14.77Zm12.257-1.032a4,4,0,0,1-6.838-2.838,4,4,0,1,1,8,0A3.794,3.794,0,0,1,115.99,13.738Zm-4.9-.645a3.045,3.045,0,0,0,2.064.9,2.567,2.567,0,0,0,2.064-.9,3.113,3.113,0,0,0,.9-2.193,2.658,2.658,0,0,0-.9-2.193,3.045,3.045,0,0,0-2.064-.9,2.567,2.567,0,0,0-2.064.9,3.113,3.113,0,0,0-.9,2.193A2.658,2.658,0,0,0,111.087,13.093Zm8.386,1.677h-1.032V7.029h2.58a2.717,2.717,0,0,1,1.677.645,2.08,2.08,0,0,1,.774,1.677,2.271,2.271,0,0,1-.774,1.677,2.717,2.717,0,0,1-1.677.645h-1.677v3.1Zm0-4.129h1.677a1.465,1.465,0,0,0,1.032-.387,1.394,1.394,0,0,0,.387-.9,1.394,1.394,0,0,0-.387-.9,1.465,1.465,0,0,0-1.032-.387h-1.677Z" transform="translate(-40.9 -6.9)" fill="#fff"/>
    </g>
  </g>
</svg>
