<svg xmlns="http://www.w3.org/2000/svg" width="314.158" height="81.959" viewBox="0 0 314.158 81.959"><defs><style>.a{fill:#37393e;}.b{fill:#73d581;}.c{fill:#56d3d8;}.d{fill:#27b06d;}.e{fill:none;stroke:#fff;stroke-linejoin:round;stroke-width:2px;}</style></defs><g transform="translate(-2222.082 111.342)"><path class="a" d="M2391.66-48.314h0a14.675,14.675,0,0,1-3.408-.359,9.753,9.753,0,0,1-7.085-6.1,16.387,16.387,0,0,1-1.076-7.8,20.611,20.611,0,0,1,2.871-8.251,13.961,13.961,0,0,1,5.382-4.843,14.093,14.093,0,0,1,6.368-1.435c3.947,0,7.262,1.615,8.161,4.036q1.48,4.574-.807,7.534c-3.318,4.574-12.108,4.843-14.709,4.843h-.807c-.09,0-.179.09-.264.18-.179.264-.358.986.264,2.871a6.823,6.823,0,0,0,6.458,4.216,8.834,8.834,0,0,0,4.3-1.166,5.88,5.88,0,0,1,3.138-.986,2.113,2.113,0,0,1,2.064,1.166,2.093,2.093,0,0,1,.18,1.794,12.638,12.638,0,0,1-3.318,2.422,16.627,16.627,0,0,1-7.717,1.882Zm3.588-24.031a7.736,7.736,0,0,0-4.574,1.883,12.039,12.039,0,0,0-3.318,5.113h1.525c2.422,0,6.817-.264,8.431-2.332a3.1,3.1,0,0,0,.539-2.781,2.585,2.585,0,0,0-2.6-1.883Z" transform="translate(-16.281 -3.535)"/><path class="a" d="M2557.86-48.314h0a14.678,14.678,0,0,1-3.408-.359,9.753,9.753,0,0,1-7.085-6.1,16.387,16.387,0,0,1-1.076-7.8,20.606,20.606,0,0,1,2.871-8.251,13.962,13.962,0,0,1,5.382-4.843,14.092,14.092,0,0,1,6.368-1.435c3.947,0,7.262,1.615,8.163,4.036q1.48,4.574-.808,7.534c-3.318,4.574-12.108,4.843-14.709,4.843h-.807c-.09,0-.179.09-.264.18-.18.264-.359.986.264,2.871a6.823,6.823,0,0,0,6.458,4.216,8.833,8.833,0,0,0,4.3-1.166,5.878,5.878,0,0,1,3.139-.986,2.113,2.113,0,0,1,2.064,1.166,2.092,2.092,0,0,1,.179,1.794,12.634,12.634,0,0,1-3.318,2.422,16.626,16.626,0,0,1-7.717,1.882Zm3.588-24.031a7.735,7.735,0,0,0-4.574,1.883,12.039,12.039,0,0,0-3.318,5.113h1.525c2.421,0,6.817-.264,8.431-2.332a3.1,3.1,0,0,0,.539-2.781,2.585,2.585,0,0,0-2.6-1.883Z" transform="translate(-33.415 -3.535)"/><g transform="translate(2222.082 -111.342)"><path class="b" d="M291.452-378.512h0A15.1,15.1,0,0,1,301.619-373a15.1,15.1,0,0,1,3.287,11.085l-5.472,51.752A15.1,15.1,0,0,1,293.926-300a15.1,15.1,0,0,1-11.085,3.287h0a15.1,15.1,0,0,1-10.166-5.508,15.1,15.1,0,0,1-3.287-11.085l5.472-51.752a15.159,15.159,0,0,1,16.593-13.453Z" transform="translate(-245.71 378.59)"/><path class="c" d="M325.638-335.742h0a15.2,15.2,0,0,1-15.158,15.158H258.456A15.2,15.2,0,0,1,243.3-335.742h0A15.2,15.2,0,0,1,258.456-350.9H310.48a15.14,15.14,0,0,1,10.724,4.434A15.14,15.14,0,0,1,325.638-335.742Z" transform="translate(-243.031 375.731)"/><path class="a" d="M361.489-357.2h7.355l-1.7,17.49h16.593l1.7-17.49h7.175c-.18.449-4.574,39.374-4.574,39.374,0,.09-7.085,0-7.085,0l2.062-16.769H366.059l-1.7,16.769H357Z" transform="translate(-254.751 376.381)"/><path class="a" d="M452.96-316.24h-6.279v-5.018a10.221,10.221,0,0,1-4.753,3.947,11.231,11.231,0,0,1-4.489.986,5.752,5.752,0,0,1-4.664-1.973c-1.7-1.973-2.245-5.292-1.7-9.771.9-6.638,3.677-11.391,8.251-14.26a21.02,21.02,0,0,1,11.394-2.97,21.682,21.682,0,0,1,4.216.359Zm-5.017-23.409c-2.332,0-7.8.807-10.315,7.893a23.074,23.074,0,0,0-.539,6.1c1.166,6.279,7.624,1.7,8.521,0a14.91,14.91,0,0,0,2.422-5.292,47.348,47.348,0,0,0,.627-8.7Z" transform="translate(-262.369 375.154)"/><path class="a" d="M468.564-357.2h6.727l-4.664,39.554H463.9Z" transform="translate(-265.772 376.381)"/><path class="a" d="M481.1-344.2h6.638l2.422,20.628,8.79-20.628h5.113l3.139,20.628,7.534-20.628h5.919L509.442-315.68h-6.368L500.2-334.874l-8.161,19.195h-6.817Z" transform="translate(-267.545 375.042)"/><path class="a" d="M530.16-344.2h6.811L534.2-315.68h-7Z" transform="translate(-272.298 375.042)"/><circle class="b" cx="5.382" cy="5.382" r="5.382" transform="translate(257.414 15.773)"/><path class="a" d="M547.509-344.4h5.65v5.919s.18-.18.539-.629a20.892,20.892,0,0,1,4.574-3.857,6.548,6.548,0,0,1,4.489-.807,31.647,31.647,0,0,0,0,5.83,8.535,8.535,0,0,0-7.444,3.228,12.543,12.543,0,0,0-3.05,7.444c-.449,9.507-.717,11.481-.717,11.481H545Z" transform="translate(-274.132 375.062)"/><path class="d" d="M273.5-350.9h30.137l-2.96,30.227H270Z" transform="translate(-245.784 375.731)"/><path class="e" d="M243-335.67h25.748l17.483-23.23-4.574,45.922,13.9-22.6h30.316" transform="translate(-243 376.556)"/></g></g></svg>