<svg id="Group_5638" data-name="Group 5638" xmlns="http://www.w3.org/2000/svg" xmlns:xlink="http://www.w3.org/1999/xlink" width="49.947" height="36.342" viewBox="0 0 49.947 36.342">
  <defs>
    <linearGradient id="linear-gradient" x1="0.5" y1="-0.48" x2="0.5" y2="1.78" gradientUnits="objectBoundingBox">
      <stop offset="0" stop-color="#fff"/>
      <stop offset="1" stop-color="#56d3d8"/>
    </linearGradient>
  </defs>
  <path id="Path_2053" data-name="Path 2053" d="M39.026,102.992H28.311V92.164h3.541a1.108,1.108,0,0,0,.9-1.755l-6.889-9.532a1.1,1.1,0,0,0-1.786,0l-6.889,9.532a1.105,1.105,0,0,0,.9,1.755h3.541v10.828h-12C4.266,102.7,0,97.685,0,92.256a10.167,10.167,0,0,1,5.042-8.777A6.816,6.816,0,0,1,4.623,81.1a6.912,6.912,0,0,1,6.919-6.919,6.8,6.8,0,0,1,2.368.418,13.852,13.852,0,0,1,26.32,4.572,12.051,12.051,0,0,1-1.2,23.82Z" transform="translate(0 -66.65)" fill="url(#linear-gradient)"/>
</svg>
